# xmcd CD database file
#
# Track frame offsets:
#	150
#	18530
#	36060
#	52245
#	73900
#	93888
#	111268
#	132555
#	143833
#	164528
#	182783
#	210985
#	227495
#	246105
#	260998
#	271413
#
# Disc length: 3822 seconds
#
# Revision: 2
# Processed by: cddbd v1.5.2PL0 Copyright (c) Steve Scherf et al.
# Submitted via: CDex 1.51
#
DISCID=f30eec10
DTITLE=Dynamic Twins - Word 2 The Wize
DYEAR=1991
DGENRE=Christian Rap
TTITLE0=Mission
TTITLE1=The Judge
TTITLE2=Fantasy
TTITLE3=Backbiter
TTITLE4=He's All I Need
TTITLE5=Persuaded
TTITLE6=Real Thing
TTITLE7=Word 2 The Wize
TTITLE8=Uptown
TTITLE9=That's How I'm Livin
TTITLE10=We Need Love
TTITLE11=I Ain't Wit' It
TTITLE12=Shakin' Off dust
TTITLE13=Keep Goin'
TTITLE14=Talk On Your Record
TTITLE15=The Judge (Instrumental)
EXTD=YEAR: 1991
EXTT0=
EXTT1=
EXTT2=
EXTT3=
EXTT4=
EXTT5=
EXTT6=
EXTT7=
EXTT8=
EXTT9=
EXTT10=
EXTT11=
EXTT12=
EXTT13=
EXTT14=
EXTT15=
PLAYORDER=
